<svg width="31" height="31" viewBox="0 0 31 31" fill="none" xmlns="http://www.w3.org/2000/svg">
<path d="M15.5616 0.0996094C7.03515 0.0996094 0.123535 7.01123 0.123535 15.5377C0.123535 24.0641 7.03515 30.9757 15.5616 30.9757C24.088 30.9757 30.9996 24.0641 30.9996 15.5377C30.9996 7.01123 24.088 0.0996094 15.5616 0.0996094ZM15.5616 2.33658C18.9248 2.33658 21.9946 3.59478 24.3258 5.66503C22.6129 7.92439 20.0108 9.42883 17.4033 10.447C15.9273 7.75869 14.273 5.17219 12.4516 2.70478C13.4703 2.45924 14.5145 2.33564 15.5624 2.33658H15.5616ZM9.94522 3.58707C11.6666 6.16213 13.3339 8.54963 14.8568 11.2521C11.005 12.2501 6.65229 12.8491 2.63145 12.8592C3.479 8.74646 6.24164 5.33157 9.94522 3.58784V3.58707ZM25.7901 7.19185C27.6976 9.52296 28.747 12.4384 28.7627 15.4504C25.709 14.8484 22.6724 14.6909 19.5801 15.0027C19.2328 14.1359 18.8113 13.3123 18.4076 12.4246C21.073 11.3493 23.9228 9.5091 25.7901 7.19108V7.19185ZM15.929 13.2945C16.2594 13.9969 16.6423 14.7426 17.002 15.5045C12.7025 17.4003 8.12894 19.9336 5.75534 24.3752C3.47669 21.8536 2.26232 18.548 2.36668 15.1509C6.97108 15.1293 11.4906 14.5535 15.929 13.2945ZM22.9055 16.8939C24.8266 16.8943 26.7397 17.1407 28.5983 17.6272C28.3117 19.4151 27.6603 21.1249 26.6847 22.6504C25.7091 24.1758 24.43 25.4841 22.9271 26.494C22.2185 23.2714 21.5431 20.1876 20.3489 17.0784C21.1953 16.9551 22.0494 16.8931 22.9047 16.8931L22.9055 16.8939ZM28.667 17.1332C28.6577 17.2088 28.6492 17.2829 28.6384 17.357C28.6492 17.2822 28.6585 17.2081 28.667 17.1332ZM17.9066 17.6812C19.1231 20.8252 20.078 24.3065 20.7187 27.6944C19.0878 28.3863 17.334 28.7418 15.5624 28.7395C12.6275 28.7437 9.77561 27.7655 7.46124 25.9607C9.85182 22.0826 13.5546 19.1479 17.9059 17.682L17.9066 17.6812Z" fill="#FBFBFB"/>
</svg>
